<svg width="550" height="317" viewBox="0 0 550 317" fill="none" xmlns="http://www.w3.org/2000/svg">
<path d="M0 63.1547C0 41.8691 0 21.0835 0 0.0904541C27.8233 0.0904541 55.2384 0.0904541 82.9512 0.0904541C82.9512 105.392 82.9512 210.599 82.9512 316.117C55.4326 316.117 27.9032 316.117 0 316.117C0 231.86 0 147.757 0 63.1547Z" fill="black"/>
<path d="M188.67 316.208C175.525 316.208 162.879 316.208 149.951 316.208C149.951 210.778 149.951 105.543 149.951 0C177.478 0 205 0 232.717 0C232.717 105.361 232.717 210.576 232.717 316.208C218.066 316.208 203.618 316.208 188.67 316.208Z" fill="black"/>
<path d="M299.717 142.11C299.717 94.4823 299.717 47.3548 299.717 0.0275879C327.549 0.0275879 354.964 0.0275879 382.86 0.0275879C382.86 38.7471 382.86 77.3188 382.86 116.105C410.897 116.105 438.455 116.105 466.35 116.105C466.35 77.4068 466.35 38.9654 466.35 0.179993C494.223 0.179993 521.76 0.179993 549.506 0.179993C549.506 105.489 549.506 210.732 549.506 316.18C521.877 316.18 494.456 316.18 466.523 316.18C466.523 277.495 466.523 238.932 466.523 200.114C438.571 200.114 411.128 200.114 383.204 200.114C383.204 238.574 383.204 277.127 383.204 316.035C355.195 316.035 327.665 316.035 299.717 316.035C299.717 258.197 299.717 200.404 299.717 142.11Z" fill="black"/>
</svg>
